{"title":"24 S09E04 SUB-ESP.1080p-McFly-H264.MP4","uid":10197339,"size":956463806,"categoryP":"video","categoryS":"hd___tv_shows","magnet":"?xt=urn:btih:5cbda0be8e1366e602c6d6bf1df5d280a1b1bf2c&amp;dn=24+S09E04+SUB-ESP.1080p-McFly-H264.MP4&amp;tr=udp%3A%2F%2Ftracker.openbittorrent.com%3A80&amp;tr=udp%3A%2F%2Fopen.demonii.com%3A1337&amp;tr=udp%3A%2F%2Ftracker.coppersurfer.tk%3A6969&amp;tr=udp%3A%2F%2Fexodus.desync.com%3A6969","seeders":0,"leechers":0,"uploader":"gunsnik","files":1,"time":1400708547,"description":"General\nComplete name                            : D:BAJADOS2424.S09E04.1080p.h264-McFLY.mp4\nFormat                                   : MPEG-4\nFormat profile                           : Base Media / Version 2\nCodec ID                                 : mp42\nFile size                                : 912 MiB\nDuration                                 : 42mn 54s\nOverall bit rate                         : 2 972 Kbps\nEncoded date                             : UTC 2014-05-21 19:20:00\nTagged date                              : UTC 2014-05-21 19:20:00\n\nVideo\nID                                       : 1\nFormat                                   : AVC\nFormat/Info                              : Advanced Video Codec\nFormat profile                           : &lt;a class=&quot;__cf_email__&quot; href=&quot;/cdn-cgi/l/email-protection&quot; data-cfemail=&quot;3f775658577f730b110f&quot;&gt;[email&amp;#160;protected]&lt;/a&gt;&lt;script data-cfhash='f9e31' type=&quot;text/javascript&quot;&gt;\n/* &lt;![CDATA[ */!function(){try{var t=&quot;currentScript&quot;in document?document.currentScript:function(){for(var t=document.getElementsByTagName(&quot;script&quot;),e=t.length;e--;)if(t[e].getAttribute(&quot;data-cfhash&quot;))return t[e]}();if(t&amp;&amp;t.previousSibling){var e,r,n,i,c=t.previousSibling,a=c.getAttribute(&quot;data-cfemail&quot;);if(a){for(e=&quot;&quot;,r=parseInt(a.substr(0,2),16),n=2;a.length-n;n+=2)i=parseInt(a.substr(n,2),16)^r,e+=String.fromCharCode(i);e=document.createTextNode(e),c.parentNode.replaceChild(e,c)}t.parentNode.removeChild(t);}}catch(u){}}()/* ]]&gt; */&lt;/script&gt;\nFormat settings, CABAC                   : Yes\nFormat settings, ReFrames                : 4 frames\nCodec ID                                 : avc1\nCodec ID/Info                            : Advanced Video Coding\nDuration                                 : 42mn 54s\nBit rate mode                            : Variable\nBit rate                                 : 2 504 Kbps\nMaximum bit rate                         : 2 744 Kbps\nWidth                                    : 1 920 pixels\nHeight                                   : 1 080 pixels\nDisplay aspect ratio                     : 16:9\nFrame rate                               : 29.970 fps\nStandard                                 : Component\nColor space                              : YUV\nChroma subsampling                       : 4:2:0\nBit depth                                : 8 bits\nScan type                                : MBAFF\nBits/(Pixel*Frame)                       : 0.040\nStream size                              : 842 MiB (92%)\nTitle                                    : PID 256 Video\nEncoded date                             : UTC 2014-05-21 19:20:00\nTagged date                              : UTC 2014-05-21 19:20:00\nColor primaries                          : BT.709-5, BT.1361, IEC 61966-2-4, SMPTE RP177\nTransfer characteristics                 : BT.709-5, BT.1361\nMatrix coefficients                      : BT.709-5, BT.1361, IEC 61966-2-4 709, SMPTE RP177\n\nAudio\nID                                       : 2\nFormat                                   : MPEG Audio\nFormat version                           : Version 1\nFormat profile                           : Layer 3\nCodec ID                                 : 6B\nDuration                                 : 42mn 54s\nSource duration                          : 42mn 54s\nBit rate mode                            : Constant\nBit rate                                 : 224 Kbps\nChannel(s)                               : 2 channels\nSampling rate                            : 48.0 KHz\nCompression mode                         : Lossy\nStream size                              : 68.8 MiB (8%)\nSource stream size                       : 68.8 MiB\nTitle                                    : PID 257\nWriting library                          : LAMEUUzVâ‚¬%\nEncoded date                             : UTC 2014-05-21 19:20:00\nTagged date                              : UTC 2014-05-21 19:20:00\n\nCapturas: &lt;a href=&quot;\nhttp://i55.servimg.com/u/f55/11/56/14/72/24_s0920.jpg&quot; rel=&quot;nofollow&quot; target=&quot;_NEW&quot;&gt;\nhttp://i55.servimg.com/u/f55/11/56/14/72/24_s0920.jpg&lt;/a&gt; &lt;a href=&quot;\nhttp://i55.servimg.com/u/f55/11/56/14/72/24_s0921.jpg&quot; rel=&quot;nofollow&quot; target=&quot;_NEW&quot;&gt;\nhttp://i55.servimg.com/u/f55/11/56/14/72/24_s0921.jpg&lt;/a&gt; &lt;a href=&quot;\nhttp://i55.servimg.com/u/f55/11/56/14/72/24_s0922.jpg&quot; rel=&quot;nofollow&quot; target=&quot;_NEW&quot;&gt;\nhttp://i55.servimg.com/u/f55/11/56/14/72/24_s0922.jpg&lt;/a&gt; &lt;a href=&quot;\nhttp://i55.servimg.com/u/f55/11/56/14/72/24_s0923.jpg&quot; rel=&quot;nofollow&quot; target=&quot;_NEW&quot;&gt;\nhttp://i55.servimg.com/u/f55/11/56/14/72/24_s0923.jpg&lt;/a&gt;\n\n","torrent":{"xt":"urn:btih:5cbda0be8e1366e602c6d6bf1df5d280a1b1bf2c","amp;dn":"24+S09E04+SUB-ESP.1080p-McFly-H264.MP4","amp;tr":["udp%3A%2F%2Ftracker.openbittorrent.com%3A80","udp%3A%2F%2Fopen.demonii.com%3A1337","udp%3A%2F%2Ftracker.coppersurfer.tk%3A6969","udp%3A%2F%2Fexodus.desync.com%3A6969"],"infoHash":"5cbda0be8e1366e602c6d6bf1df5d280a1b1bf2c","infoHashBuffer":{"type":"Buffer","data":[92,189,160,190,142,19,102,230,2,198,214,191,29,245,210,128,161,177,191,44]},"announce":[],"urlList":[]}}